<?xml version="1.0" encoding="utf-8"?>
<!-- Generator: Adobe Illustrator 22.1.0, SVG Export Plug-In . SVG Version: 6.00 Build 0)  -->
<svg version="1.1" id="Layer_1" xmlns="http://www.w3.org/2000/svg" xmlns:xlink="http://www.w3.org/1999/xlink" x="0px" y="0px"
	 viewBox="0 0 140 41" style="enable-background:new 0 0 140 41;" xml:space="preserve">
<g transform="translate(0.000000,140.000000) scale(0.100000,-0.100000)">
	<path d="M243,1360.4c-84-42-167-108-205-163c-14-21-1-12,37,25c52,51,154,115,211,132c20,6,21,5,11-33c-13-50,1-87,40-102
		c22-9,49-6,133,15c200,49,243,45,307-28l38-43l102,23c113,25,143,41,171,88c17,29,27,34,134,59c138,32,138,32,131,7
		c-3-12-51-48-122-92c-64-39-120-75-126-81c-14-13,247,123,262,137c7,6,15,31,19,55c7,43,6,44-17,38c-13-3-84-18-158-33
		c-129-27-134-29-148-59c-20-43-53-60-147-80l-79-16l-36,36c-19,20-48,43-64,52c-44,22-131,18-241-12c-54-14-112-25-129-23
		c-30,3-32,6-31,38c1,19,3,48,5,64s-1,31-7,33S287,1382.4,243,1360.4z"/>
	<path d="M19,1108.4c-1-2-3-19-4-38s-5-45-9-57c-6-19-4-23,13-23c13,0,21,7,21,18c1,16,1,16,11-1c10-18,12-18,30-1c18,16,19,16,13,1
		c-4-12-1-17,13-17c15,0,23,11,32,43c7,23,15,50,17,60c7,24-24,22-52-4l-22-21l-7,21c-4,14-15,21-31,21
		C31,1110.4,19,1109.4,19,1108.4z"/>
	<path d="M198,1094.4c-31-16-46-59-31-83c17-27,60-25,88,3c29,29,32,58,9,80C245,1114.4,233,1114.4,198,1094.4z M240,1055.4
		c0-16-27-32-37-22c-3,4-3,13,0,22C211,1075.4,240,1075.4,240,1055.4z"/>
	<path d="M297,1103.4c-15-15-6-33,17-33s24-2,13-35c-6-19-8-38-4-41c14-14,36,7,42,40c5,25,13,36,28,38c12,2,23,11,25,21
		c3,15-5,17-56,17C330,1110.4,300,1107.4,297,1103.4z"/>
	<path d="M451,1084.4c-69-58-8-129,63-73c32,25,36,73,7,89C493,1115.4,485,1113.4,451,1084.4z M500,1055.4c0-16-27-32-37-22
		c-3,4-3,13,0,22C471,1075.4,500,1075.4,500,1055.4z"/>
	<path d="M629,1093.4c-1-10-1-25,0-34s-3-28-8-42l-11-27h60c62,0,66,3,54,47c-4,14-16,23-33,26c-14,2,2,5,37,6c71,1,77-8,35-51
		l-27-28h25c14,0,30,5,37,12c9,9,12,9,12,0c0-7,11-12,24-12c24,0,24,2,14,31c-9,28-8,34,16,57c24,24,26,25,27,7c2-28,2-26-6-62
		c-6-28-4-33,13-33c11,0,22,9,25,20c3,13,14,20,28,20c12,0,33,10,46,22c25,24,28,19,14-30l-10-32h55c42,0,56,4,61,17c4,9,2,18-5,21
		c-6,2-9,9-6,17c4,9-4,15-23,18c-18,2-11,5,20,6c52,1,50,5,32-56c-5-19-2-23,14-23c13,0,21,6,21,17c0,15,2,15,19-1
		c26-23,56-17,56,11c0,12,4,25,8,29c13,13,7,52-9,58c-28,11-92,6-97-6c-4-10-6-10-6,0c-1,8-20,12-61,12c-49,0-60-3-60-17
		c0-15-1-15-18,1c-21,19-138,21-160,3c-9-7-16-7-24,1c-18,18-56,14-61-5c-4-17-5-17-6,0c-1,14-11,17-61,17S630,1107.4,629,1093.4z
		 M963,1063.4c-7-2-19-2-25,0c-7,3-2,5,12,5S969,1066.4,963,1063.4z M1217,1064.4c-3-3-12-4-19-1c-8,3-5,6,6,6
		C1215,1070.4,1221,1067.4,1217,1064.4z"/>
	<path d="M1277,1103.4c-15-15-6-33,18-33c22,0,24-2,15-26c-15-38-12-54,9-54c15,0,21,10,26,39c5,31,12,41,28,43c12,2,23,11,25,21
		c3,15-5,17-56,17C1310,1110.4,1280,1107.4,1277,1103.4z"/>
</g>
</svg>
