<?xml version="1.0" encoding="utf-8"?>
<!-- Generator: Adobe Illustrator 22.1.0, SVG Export Plug-In . SVG Version: 6.00 Build 0)  -->
<svg version="1.1" id="Layer_1" xmlns="http://www.w3.org/2000/svg" xmlns:xlink="http://www.w3.org/1999/xlink" x="0px" y="0px"
	 viewBox="0 0 33 33" style="enable-background:new 0 0 33 33;" xml:space="preserve">
<style type="text/css">
	.st0{fill:#FFFFFF;}
	.st1{font-family:'SourceSansPro-Bold';}
	.st2{font-size:5px;}
</style>
<g>
	<path class="st0" d="M3,10l14.3-4.6c1.6-0.5,3.3,0.4,3.8,1.9l0.9,2.9c0.5,1.6-0.4,3.3-1.9,3.8L5.8,18.6c-1.6,0.5-3.3-0.4-3.8-1.9
		l-0.9-2.9C0.5,12.2,1.4,10.5,3,10z"/>
	<text transform="matrix(0.9511 -0.309 0.309 0.9511 6.301 14.9674)" class="st0 st1 st2">NEW</text>
	<path class="st0" d="M24.3,29h-0.6c-1.2,0-2.1-0.9-2.1-2.1V19c0-1.2,0.9-2.1,2.1-2.1h0.6c1.1,0,2.1,0.9,2.1,2.1V27
		C26.3,28.1,25.4,29,24.3,29z"/>
	<path class="st0" d="M32.8,8l-4.1-1.4l-1.9,1.7c-0.2-0.1-0.4-0.1-0.6-0.1H26l-0.4-0.7h-3.3l-0.4,0.7h-0.3c-0.2,0-0.4,0-0.6,0.1
		l-1.9-1.7L15.1,8l0.3,0.8l2.8-1c-0.5,0.4-1,1-1.2,1.9c-0.2,0.1-0.3,0.2-0.3,0.4c0,0.2,0.2,0.4,0.4,0.4c0.2,0,0.4-0.2,0.4-0.4
		c0-0.1-0.1-0.3-0.2-0.3c0.3-1.3,1.5-2,1.7-2.1l1.2,1.1C20,9,19.8,9.4,19.8,9.8v0.3h-0.1c-0.8,0-1.5,0.7-1.5,1.5v0.8
		c0,0.8,0.7,1.5,1.5,1.5h0.1v5.1h-1.4v3.6h-0.9v0.9h1.1c0,0,0,0.1,0.1,0.1l0.7,0.9H21v-8.6h5.9v8.6h1.5l0.7-0.9c0,0,0-0.1,0-0.1h1.1
		v-0.9h-0.9v-3.7H28v-5.1H28c0.8,0,1.5-0.7,1.5-1.5v-0.8c0-0.8-0.7-1.5-1.5-1.5H28V9.9c0-0.4-0.2-0.8-0.4-1.1l1.2-1.1
		c0.2,0.1,1.4,0.8,1.7,2.1c-0.1,0.1-0.2,0.2-0.2,0.3c0,0.2,0.2,0.4,0.4,0.4s0.4-0.2,0.4-0.4c0-0.2-0.1-0.4-0.3-0.4
		c-0.2-0.9-0.8-1.5-1.2-1.9l2.9,1C32.5,8.8,32.8,8,32.8,8z M23.9,14.3c-1.4,0-2.5-1.1-2.5-2.5c0,0,0,0,0,0c0-1.4,1.1-2.5,2.5-2.5
		c1.4,0,2.5,1.1,2.5,2.5c0,0,0,0,0,0C26.5,13.2,25.3,14.3,23.9,14.3L23.9,14.3z"/>
</g>
</svg>
