<svg xmlns="http://www.w3.org/2000/svg" width="15" height="15" viewBox="0 0 15 15">
    <g fill="#000" fill-rule="nonzero" opacity=".5">
        <path d="M11.223 8.341c-1.993-.455-5.451-.455-7.444 0-1.993.455-1.837 1.333-1.715 3.152.058.864.327 2.27.594 3.507l.73-.539c-.201-.928-.403-1.983-.447-2.631-.091-1.364-.122-2.4 1.374-2.74 1.495-.342 4.779-.342 6.274 0 1.496.34 1.465 1.376 1.373 2.74-.043.648-.245 1.703-.445 2.631l.827.539s.325-1.906.603-3.631c.114-1.74.223-2.584-1.724-3.028z"/>
        <path d="M7.5 0C3.358 0 0 2.96 0 8.062 0 10.535.669 13.057 1.954 15a30.35 30.35 0 0 1-.53-3.91c-.133-2.026-.178-3.257 2.003-3.763 2.181-.507 5.965-.507 8.146 0 2.18.506 2.136 1.737 2.003 3.764-.063.963-.238 2.53-.53 3.909C14.331 13.057 15 10.536 15 8.062 15 2.961 11.642 0 7.5 0z"/>
    </g>
</svg>
