<?xml version="1.0" encoding="utf-8"?>
<!-- Generator: Adobe Illustrator 22.1.0, SVG Export Plug-In . SVG Version: 6.00 Build 0)  -->
<svg version="1.1" id="Layer_1" xmlns="http://www.w3.org/2000/svg" xmlns:xlink="http://www.w3.org/1999/xlink" x="0px" y="0px"
	 viewBox="0 0 25 25" style="enable-background:new 0 0 25 25;" xml:space="preserve">
<style type="text/css">
	.st0{opacity:0.5;}
	.st1{fill:none;}
</style>
<g class="st0">
	<path class="st1" d="M15.1,1.7C15.1,1.3,14,1,12.5,1S9.9,1.3,9.9,1.7c0,0.1,0,0.1,0.1,0.2l0.3,0.4l2.3,3.3l2.3-3.3L15,1.9
		C15.1,1.8,15.1,1.7,15.1,1.7L15.1,1.7z"/>
	<path class="st1" d="M15.1,1.7C15.1,1.3,14,1,12.5,1S9.9,1.3,9.9,1.7c0,0.1,0,0.1,0.1,0.2l0.3,0.4l2.3,3.3l2.3-3.3L15,1.9
		C15.1,1.8,15.1,1.7,15.1,1.7L15.1,1.7z"/>
	<path d="M13.4,12.1h-1.8c-1.6,0-3,1.3-3,2.9v6.6h1.3v-6.4c0-0.6,0.5-1,1-1h3c0.6,0,1,0.5,1,1v6.4h1.3V15
		C16.4,13.4,15,12.1,13.4,12.1L13.4,12.1z"/>
	<path d="M12.5,24.9c-1.2,0-2.3-1-2.3-2.2v-6.1c0-1.2,1-2.2,2.3-2.2s2.3,1,2.3,2.2v6.1C14.8,23.9,13.7,24.9,12.5,24.9z"/>
	<path d="M18.5,8.3l-0.2-2.6l0.1-0.1c-0.2-0.7-0.6-1.4-1.1-2H21V3h-4.6c-0.3-0.2-0.7-0.4-1.1-0.5L16,1.4c0.1-0.1,0.1-0.1,0.1-0.2
		c0-0.5-1.6-1-3.6-1S8.9,0.6,8.9,1.1C8.9,1.2,9,1.3,9,1.3l0.7,1.1C9.4,2.5,9,2.7,8.6,2.9H4v0.8h3.7c-0.5,0.6-0.9,1.2-1.1,2l0.1,0.1
		L6.5,8.3v5.3l1,3.8h0.6V15c0-1.9,1.6-3.4,3.5-3.4h1.8c1.9,0,3.5,1.5,3.5,3.4v2.5h0.6l1-3.8L18.5,8.3L18.5,8.3z M6.9,7.6L7,5.8
		l2,0.9c0.6,0.3,1,0.8,1.1,1.5L10.2,9L7.5,8.5C7.1,8.4,6.8,8.1,6.9,7.6z M11.4,3.6l-1.2-1.3L10,1.9c0,0-0.1-0.1-0.1-0.2
		C9.9,1.3,11,1,12.5,1s2.6,0.3,2.6,0.7c0,0.1,0,0.1-0.1,0.2l-0.3,0.4l-1.2,1.3C13,4.2,12.1,4.2,11.4,3.6C11.5,3.7,11.5,3.6,11.4,3.6
		L11.4,3.6z M18,5.9l0.2,1.8c0,0.4-0.3,0.8-0.7,0.9l-2.7,0.5l0.1-0.8C15,7.6,15.4,7.1,16,6.8L18,5.9z"/>
</g>
</svg>
