<?xml version="1.0" encoding="utf-8"?>
<!-- Generator: Adobe Illustrator 22.1.0, SVG Export Plug-In . SVG Version: 6.00 Build 0)  -->
<svg version="1.1" id="Layer_1" xmlns="http://www.w3.org/2000/svg" xmlns:xlink="http://www.w3.org/1999/xlink" x="0px" y="0px"
	 viewBox="0 0 15 15" style="enable-background:new 0 0 15 15;" xml:space="preserve">
<style type="text/css">
	.st0{fill:#FFFFFF;}
</style>
<g>
	<path class="st0" d="M11.2,8.3c-2-0.5-5.5-0.5-7.4,0S2,9.6,2.1,11.5c0.1,0.9,0.3,2.3,0.6,3.5l0.7-0.5c-0.2-0.9-0.4-2-0.4-2.6
		c-0.1-1.4-0.1-2.4,1.4-2.7s4.8-0.3,6.3,0s1.5,1.4,1.4,2.7c0,0.6-0.2,1.7-0.4,2.6l0.8,0.5c0,0,0.3-1.9,0.6-3.6
		C13.1,9.6,13.2,8.8,11.2,8.3z"/>
	<path class="st0" d="M7.5,0C3.4,0,0,3,0,8.1c0,2.5,0.7,5,2,6.9c-0.3-1.3-0.4-2.6-0.5-3.9c-0.1-2-0.2-3.3,2-3.8s6-0.5,8.1,0
		c2.2,0.5,2.1,1.7,2,3.8c-0.1,1-0.2,2.5-0.5,3.9c1.3-1.9,2-4.5,2-6.9C15,3,11.6,0,7.5,0z"/>
</g>
</svg>
