<?xml version="1.0" encoding="utf-8"?>
<!-- Generator: Adobe Illustrator 22.1.0, SVG Export Plug-In . SVG Version: 6.00 Build 0)  -->
<svg version="1.1" id="svg" xmlns="http://www.w3.org/2000/svg" xmlns:xlink="http://www.w3.org/1999/xlink" x="0px" y="0px"
	 viewBox="0 0 399.9 390.8" style="enable-background:new 0 0 399.9 390.8;" xml:space="preserve">
<g id="svgg">
	<path id="path0" d="M387.1,2.4c-0.9,0.2-2.6,0.8-3.9,1.2C379.1,5.1,11.5,198,7.2,200.8c-10.4,7-9.7,16.9,1.6,22.6
		c6.1,3.1,48.8,19.8,54.8,21.5c11.9,3.3,29.6,1.5,41.3-4.1c5.9-2.9-2.3,3.5,112.8-87.3c103.9-82,109.6-86.3,109.6-85
		c0,1.1-14.3,16.6-89.3,96.9c-85.8,91.8-85.6,91.5-86.3,99.7c-1.2,12.8,2.2,15.2,44.6,32.1c35.1,14,102.2,41.2,110.2,44.8
		c2.5,1.1,4.7,2,4.8,1.8c0.1-0.1,0.9-2.8,1.7-6.1c0.9-3.2,20.7-75.8,44-161.3C401.8,12.3,401.6,13,398.8,7
		C397,3.1,392.1,1.2,387.1,2.4 M109.4,288.4c-7,3.5-6.1,9,5.5,37.4c10,24.5,20.2,50.4,23,58.5c1.2,3.4,2.3,6.4,2.4,6.5
		c0.5,0.6,32-47.3,34.3-52.1c4.7-9.9,2.9-21-4.7-28.5c-3.9-3.8-5-4.3-27.7-13.6C117.7,286.5,114.6,285.8,109.4,288.4"/>
</g>
</svg>
