<?xml version="1.0" encoding="utf-8"?>
<!-- Generator: Adobe Illustrator 22.1.0, SVG Export Plug-In . SVG Version: 6.00 Build 0)  -->
<svg version="1.1" id="Layer_1" xmlns="http://www.w3.org/2000/svg" xmlns:xlink="http://www.w3.org/1999/xlink" x="0px" y="0px"
	 viewBox="0 0 71 26" style="enable-background:new 0 0 71 26;" xml:space="preserve">
<style type="text/css">
	.st0{fill:#7F7F7F;}
</style>
<g>
	<g>
		<path class="st0" d="M8.6,16.1H8.1c-0.9,0-1.6,0.7-1.6,1.6c0,0,0,0,0,0v5.5c0,0.9,0.7,1.6,1.6,1.6h0.5c0.9,0,1.6-0.7,1.6-1.6
			c0,0,0,0,0,0v-5.5C10.3,16.9,9.5,16.1,8.6,16.1C8.6,16.1,8.6,16.1,8.6,16.1z"/>
		<path class="st0" d="M15.7,3.5h-2.4v0.3h-1.6c-0.3-1.6-1.7-2.9-3.4-2.9C6.7,0.9,5.3,2.1,5,3.8H3.4V3.5H1.1c-0.5,0-0.8,0.4-0.8,0.8
			c0,0.5,0.4,0.8,0.8,0.8h2.4V4.8H5c0.2,1.1,0.9,2,1.8,2.5v0.8H5.6c-1.7,0-3,1.3-3.1,3L2,18c-0.1,1.8,1.3,3.2,3.1,3.2h0.5v-3.8
			c0-1.3,1.1-2.4,2.4-2.4h0.8c1.3,0,2.4,1.1,2.4,2.4v3.8h0.5c1.8,0,3.2-1.5,3.1-3.2l-0.5-6.9c-0.1-1.7-1.4-3-3.1-3H9.9V7.3
			c1-0.5,1.7-1.4,1.8-2.5h1.6v0.3h2.4c0.5,0,0.8-0.4,0.8-0.8C16.5,3.9,16.1,3.5,15.7,3.5L15.7,3.5z M10,10.2c0,0.4-0.7,0.7-1.6,0.7
			s-1.6-0.3-1.6-0.7c0-0.4,0.7-0.7,1.6-0.7S10,9.8,10,10.2z M8.4,6.6c-1.2,0-2.2-1-2.3-2.2c0-1.2,1-2.2,2.3-2.2c1.2,0,2.3,1,2.3,2.2
			C10.6,5.5,9.6,6.5,8.4,6.6z"/>
	</g>
	<g>
		<path class="st0" d="M36.3,24.5h-0.6c-1.2,0-2.1-0.9-2.1-2.1v-7.9c0-1.2,0.9-2.1,2.1-2.1h0.6c1.1,0,2.1,0.9,2.1,2.1v7.9
			C38.3,23.6,37.4,24.5,36.3,24.5z"/>
		<path class="st0" d="M44.8,3.5L40.7,2l-1.9,1.7c-0.2,0-0.4-0.1-0.6-0.1H38l-0.4-0.7h-3.3l-0.4,0.7h-0.3c-0.2,0-0.4,0-0.6,0.1
			L31.2,2l-4.1,1.4l0.3,0.8l2.8-1c-0.5,0.4-1,1-1.2,1.9c-0.2,0.1-0.3,0.2-0.3,0.4c0,0.2,0.2,0.4,0.4,0.4c0.2,0,0.4-0.2,0.4-0.4
			c0-0.1-0.1-0.3-0.2-0.3c0.3-1.3,1.5-2,1.7-2.1l1.2,1.1c-0.3,0.3-0.4,0.7-0.4,1.1v0.3h-0.1c-0.8,0-1.5,0.7-1.5,1.5v0.8
			c0,0.8,0.7,1.5,1.5,1.5h0.1v5.1h-1.4v3.6h-0.9v0.9h1.1c0,0,0,0.1,0.1,0.1l0.7,0.9H33v-8.6h5.9v8.6h1.5l0.7-0.9c0,0,0-0.1,0-0.1
			h1.1v-0.9h-0.9v-3.7H40V9.4H40c0.8,0,1.5-0.7,1.5-1.5V7.1c0-0.8-0.7-1.5-1.5-1.5H40V5.4c0-0.4-0.2-0.8-0.4-1.1l1.2-1.1
			C41,3.3,42.2,4,42.5,5.3c-0.1,0.1-0.2,0.2-0.2,0.3c0,0.2,0.2,0.4,0.4,0.4s0.4-0.2,0.4-0.4c0-0.2-0.1-0.4-0.3-0.4
			c-0.2-0.9-0.8-1.5-1.2-1.9l2.9,1C44.5,4.3,44.8,3.5,44.8,3.5z M35.9,9.8c-1.4,0-2.5-1.1-2.5-2.5c0,0,0,0,0,0
			c0-1.4,1.1-2.5,2.5-2.5c1.4,0,2.5,1.1,2.5,2.5c0,0,0,0,0,0C38.5,8.7,37.3,9.8,35.9,9.8L35.9,9.8z"/>
	</g>
	<path class="st0" d="M65.1,1.7C65.1,1.3,64,1,62.5,1s-2.6,0.3-2.6,0.7c0,0.1,0,0.1,0.1,0.2l0.3,0.4l2.3,3.3l2.3-3.3l0.3-0.4
		C65.1,1.8,65.1,1.7,65.1,1.7L65.1,1.7z"/>
	<path class="st0" d="M65.1,1.7C65.1,1.3,64,1,62.5,1s-2.6,0.3-2.6,0.7c0,0.1,0,0.1,0.1,0.2l0.3,0.4l2.3,3.3l2.3-3.3l0.3-0.4
		C65.1,1.8,65.1,1.7,65.1,1.7L65.1,1.7z"/>
	<path class="st0" d="M63.4,12.1h-1.8c-1.6,0-3,1.3-3,2.9v6.6H60v-6.4c0-0.6,0.5-1,1-1h3c0.6,0,1,0.5,1,1v6.4h1.3V15
		C66.4,13.4,65,12.1,63.4,12.1z"/>
	<path class="st0" d="M62.5,24.9c-1.2,0-2.3-1-2.3-2.2v-6.1c0-1.2,1-2.2,2.3-2.2s2.3,1,2.3,2.2v6.1C64.8,23.9,63.7,24.9,62.5,24.9z"
		/>
	<path class="st0" d="M68.5,8.3l-0.2-2.6l0.1-0.1c-0.2-0.7-0.6-1.4-1.1-2H71V3h-4.6c-0.3-0.2-0.7-0.4-1.1-0.5L66,1.4
		c0.1-0.1,0.1-0.1,0.1-0.2c0-0.5-1.6-1-3.6-1c-2,0-3.6,0.4-3.6,0.9c0,0.1,0.1,0.2,0.1,0.2l0.7,1.1c-0.4,0.1-0.8,0.3-1.1,0.5H54v0.8
		h3.7c-0.5,0.6-0.9,1.2-1.1,2l0.1,0.1l-0.2,2.6v5.3l1,3.8h0.6V15c0-1.9,1.6-3.4,3.5-3.4h1.8c1.9,0,3.5,1.5,3.5,3.4v2.5h0.6l1-3.8
		L68.5,8.3L68.5,8.3z M56.9,7.6L57,5.8l2,0.9c0.6,0.3,1,0.8,1.1,1.5L60.2,9l-2.7-0.5C57.1,8.4,56.8,8.1,56.9,7.6z M61.4,3.6
		l-1.2-1.3l-0.3-0.4c0,0-0.1-0.1-0.1-0.2C59.9,1.3,61,1,62.5,1s2.6,0.3,2.6,0.7c0,0.1,0,0.1-0.1,0.2l-0.3,0.4l-1.2,1.3
		C63,4.2,62.1,4.2,61.4,3.6C61.5,3.7,61.5,3.6,61.4,3.6L61.4,3.6z M68,5.9l0.2,1.8c0,0.4-0.3,0.8-0.7,0.9l-2.7,0.5l0.1-0.8
		C65,7.6,65.4,7.1,66,6.8L68,5.9z"/>
</g>
</svg>
