<svg xmlns="http://www.w3.org/2000/svg" width="71" height="26" viewBox="0 0 71 26">
    <g fill="none" fill-rule="evenodd">
        <g fill="#FFF" fill-rule="nonzero">
            <path d="M8.631 16.118H8.1a1.64 1.64 0 0 0-1.646 1.64v5.476c0 .908.734 1.64 1.646 1.64h.531a1.64 1.64 0 0 0 1.645-1.64v-5.476a1.64 1.64 0 0 0-1.645-1.64z"/>
            <path d="M15.668 3.452h-2.38v.303H11.72C11.441 2.14 10.05.903 8.353.903a3.376 3.376 0 0 0-3.341 2.852h-1.57v-.303H1.063a.841.841 0 0 0-.835.832c0 .455.38.833.835.833h2.38v-.303h1.569a3.433 3.433 0 0 0 1.847 2.498v.808H5.62a3.115 3.115 0 0 0-3.113 2.977l-.532 6.914c-.076 1.766 1.342 3.23 3.114 3.23h.48v-3.81a2.39 2.39 0 0 1 2.38-2.372h.835c1.29 0 2.38 1.06 2.38 2.371v3.836h.48c1.772 0 3.19-1.464 3.113-3.23l-.531-6.914a3.115 3.115 0 0 0-3.113-2.977h-1.24v-.807a3.387 3.387 0 0 0 1.847-2.498h1.57v.302h2.379a.841.841 0 0 0 .835-.832c0-.454-.38-.858-.835-.858zm-5.695 6.712c0 .378-.734.706-1.62.706-.886 0-1.62-.303-1.62-.706 0-.404.734-.707 1.62-.707.886 0 1.62.303 1.62.707zm-1.62-3.609A2.254 2.254 0 0 1 6.1 4.31a2.254 2.254 0 0 1 2.253-2.246c1.24 0 2.252 1.01 2.252 2.246a2.27 2.27 0 0 1-2.252 2.245z"/>
        </g>
        <g fill="#FFF" fill-rule="nonzero">
            <path d="M36.26 24.545h-.637a2.107 2.107 0 0 1-2.092-2.103v-7.9c0-1.154.944-2.103 2.092-2.103h.637c1.148 0 2.092.949 2.092 2.103v7.926c-.025 1.128-.944 2.077-2.092 2.077z"/>
            <path d="M44.78 3.462L40.7 2.026 38.81 3.718c-.178-.05-.357-.102-.56-.102h-.281l-.383-.667h-3.29l-.41.667h-.28c-.204 0-.382.026-.561.102l-1.888-1.692-4.081 1.436.28.82 2.832-1c-.485.41-1.02 1.026-1.25 1.898a.439.439 0 0 0-.306.41c0 .232.204.437.433.437.23 0 .434-.205.434-.436a.414.414 0 0 0-.153-.334c.332-1.282 1.53-1.975 1.735-2.103l1.173 1.052a1.746 1.746 0 0 0-.408 1.128v.257h-.051c-.816 0-1.48.667-1.48 1.487v.77c0 .82.664 1.488 1.48 1.488h.051v5.078h-1.429v3.642h-.867v.872h1.097c.026.026.026.051.051.077l.714.898h1.557v-8.567h5.918v8.592h1.531l.714-.897c.025-.026.025-.052.05-.077h1.098v-.872h-.867v-3.668h-1.43V9.361h.052c.816 0 1.48-.667 1.48-1.487v-.77c0-.82-.664-1.488-1.48-1.488h-.051V5.36c0-.436-.153-.82-.408-1.129L40.75 3.18c.204.128 1.403.82 1.735 2.103a.414.414 0 0 0-.153.333c0 .231.204.436.434.436s.433-.205.433-.436a.415.415 0 0 0-.306-.41c-.23-.872-.79-1.488-1.25-1.898l2.857 1 .28-.846zM35.93 9.797a2.522 2.522 0 0 1-2.526-2.539c0-1.41 1.123-2.54 2.526-2.54a2.522 2.522 0 0 1 2.525 2.54c0 1.41-1.122 2.54-2.525 2.54z"/>
        </g>
        <path d="M65.13 1.684c0-.383-1.17-.715-2.63-.715s-2.63.307-2.63.715a.27.27 0 0 0 .08.178l.292.434L62.5 5.56l2.258-3.265.292-.434c.053-.076.08-.127.08-.178z"/>
        <path d="M65.13 1.684c0-.383-1.17-.715-2.63-.715s-2.63.307-2.63.715a.27.27 0 0 0 .08.178l.292.434L62.5 5.56l2.258-3.265.292-.434c.053-.076.08-.127.08-.178z"/>
        <path fill="#FFF" fill-rule="nonzero" d="M63.377 12.117h-1.78c-1.647 0-2.975 1.276-2.975 2.857v6.582h1.328v-6.403c0-.561.478-.995 1.036-.995h2.975c.584 0 1.036.46 1.036.995v6.403h1.328v-6.582c.027-1.581-1.302-2.857-2.948-2.857z"/>
        <path fill="#FFF" fill-rule="nonzero" d="M62.5 24.872c-1.248 0-2.258-.969-2.258-2.168v-6.122c0-1.2 1.01-2.169 2.258-2.169s2.258.97 2.258 2.169v6.122c0 1.2-1.01 2.168-2.258 2.168z"/>
        <path fill="#FFF" fill-rule="nonzero" d="M68.477 8.316l-.24-2.576.133-.051a4.269 4.269 0 0 0-1.089-1.965H71V2.96h-4.648a4.462 4.462 0 0 0-1.116-.536l.744-1.071a.306.306 0 0 0 .106-.23c0-.535-1.594-.969-3.586-.969-1.992 0-3.586.408-3.586.944 0 .076.053.153.106.23l.744 1.071c-.398.128-.77.306-1.116.536H54v.765h3.745c-.504.561-.903 1.224-1.089 1.964l.133.051-.239 2.577v5.331l1.01 3.827h.584v-2.5c0-1.862 1.567-3.367 3.506-3.367h1.78c1.939 0 3.506 1.505 3.506 3.367v2.5h.584l1.01-3.827-.053-5.306zm-11.608-.688l.16-1.786 1.991.944c.611.28 1.01.842 1.116 1.48l.106.765-2.71-.536c-.424-.077-.716-.434-.663-.867zm4.568-4.006l-1.195-1.326-.292-.434a.27.27 0 0 1-.08-.178c0-.383 1.17-.715 2.63-.715s2.63.332 2.63.715a.27.27 0 0 1-.08.178l-.292.434-1.195 1.326a1.459 1.459 0 0 1-2.125 0zm6.535 2.245l.16 1.786a.815.815 0 0 1-.665.867l-2.71.536.107-.765a1.968 1.968 0 0 1 1.116-1.48l1.992-.944z"/>
    </g>
</svg>
