<?xml version="1.0" encoding="utf-8"?>
<!-- Generator: Adobe Illustrator 22.1.0, SVG Export Plug-In . SVG Version: 6.00 Build 0)  -->
<svg version="1.1" id="Layer_1" xmlns="http://www.w3.org/2000/svg" xmlns:xlink="http://www.w3.org/1999/xlink" x="0px" y="0px"
	 viewBox="0 0 26 26" style="enable-background:new 0 0 26 26;" xml:space="preserve">
<style type="text/css">
	.st0{fill:#7F7F7F;}
</style>
<g>
	<path class="st0" d="M-8.8,16.2h-0.5c-0.9,0-1.6,0.7-1.6,1.6c0,0,0,0,0,0v5.5c0,0.9,0.7,1.6,1.6,1.6h0.5c0.9,0,1.6-0.7,1.6-1.6
		c0,0,0,0,0,0v-5.5C-7.2,17-7.9,16.2-8.8,16.2C-8.8,16.2-8.8,16.2-8.8,16.2z"/>
	<path class="st0" d="M-1.8,3.6h-2.4v0.3h-1.6C-6,2.3-7.4,1-9.1,1c-1.7,0-3.1,1.2-3.3,2.9H-14V3.6h-2.4c-0.5,0-0.8,0.4-0.8,0.8
		c0,0.5,0.4,0.8,0.8,0.8h2.4V4.9h1.6c0.2,1.1,0.9,2,1.8,2.5v0.8h-1.2c-1.7,0-3,1.3-3.1,3l-0.5,6.9c-0.1,1.8,1.3,3.2,3.1,3.2h0.5
		v-3.8c0-1.3,1.1-2.4,2.4-2.4h0.8c1.3,0,2.4,1.1,2.4,2.4v3.8h0.5c1.8,0,3.2-1.5,3.1-3.2l-0.5-6.9c-0.1-1.7-1.4-3-3.1-3h-1.2V7.4
		C-6.6,7-5.9,6-5.7,5h1.6v0.3h2.4C-1.3,5.3-1,4.9-1,4.4C-1,4-1.3,3.6-1.8,3.6L-1.8,3.6z M-7.5,10.3c0,0.4-0.7,0.7-1.6,0.7
		c-0.9,0-1.6-0.3-1.6-0.7c0-0.4,0.7-0.7,1.6-0.7S-7.5,9.9-7.5,10.3z M-9.1,6.7c-1.2,0-2.2-1-2.3-2.2c0-1.2,1-2.2,2.3-2.2
		c1.2,0,2.3,1,2.3,2.2C-6.9,5.7-7.9,6.7-9.1,6.7z"/>
</g>
<g>
	<path class="st0" d="M13.2,24.3h-0.6c-1.2,0-2.1-0.9-2.1-2.1v-7.9c0-1.2,0.9-2.1,2.1-2.1h0.6c1.1,0,2.1,0.9,2.1,2.1v7.9
		C15.3,23.3,14.3,24.3,13.2,24.3z"/>
	<path class="st0" d="M21.7,3.2l-4.1-1.4l-1.9,1.7c-0.2,0-0.4-0.1-0.6-0.1h-0.3l-0.4-0.7h-3.3l-0.4,0.7h-0.3c-0.2,0-0.4,0-0.6,0.1
		L8.1,1.7L4,3.2L4.3,4l2.8-1c-0.5,0.4-1,1-1.2,1.9C5.7,5,5.6,5.1,5.6,5.3c0,0.2,0.2,0.4,0.4,0.4c0.2,0,0.4-0.2,0.4-0.4
		c0-0.1-0.1-0.3-0.2-0.3C6.6,3.7,7.8,3,8,2.9l1.2,1.1C8.9,4.2,8.8,4.6,8.8,5v0.3H8.7C7.9,5.3,7.3,6,7.3,6.8v0.8
		c0,0.8,0.7,1.5,1.5,1.5h0.1v5.1H7.4v3.6H6.5v0.9h1.1c0,0,0,0.1,0.1,0.1l0.7,0.9h1.6v-8.6h5.9v8.6h1.5l0.7-0.9c0,0,0-0.1,0-0.1h1.1
		v-0.9h-0.9v-3.7h-1.4V9.1H17c0.8,0,1.5-0.7,1.5-1.5V6.8c0-0.8-0.7-1.5-1.5-1.5h-0.1V5.1c0-0.4-0.2-0.8-0.4-1.1l1.2-1.1
		C17.9,3,19.1,3.7,19.4,5c-0.1,0.1-0.2,0.2-0.2,0.3c0,0.2,0.2,0.4,0.4,0.4s0.4-0.2,0.4-0.4c0-0.2-0.1-0.4-0.3-0.4
		C19.6,4,19,3.4,18.6,3l2.9,1C21.4,4,21.7,3.2,21.7,3.2z M12.9,9.5c-1.4,0-2.5-1.1-2.5-2.5c0,0,0,0,0,0c0-1.4,1.1-2.5,2.5-2.5
		c1.4,0,2.5,1.1,2.5,2.5c0,0,0,0,0,0C15.4,8.4,14.3,9.5,12.9,9.5L12.9,9.5z"/>
</g>
<path class="st0" d="M42.1,1.7c0-0.4-1.2-0.7-2.6-0.7s-2.6,0.3-2.6,0.7c0,0.1,0,0.1,0.1,0.2l0.3,0.4l2.3,3.3l2.3-3.3L42,1.9
	C42,1.8,42.1,1.7,42.1,1.7L42.1,1.7z"/>
<path class="st0" d="M42.1,1.7c0-0.4-1.2-0.7-2.6-0.7s-2.6,0.3-2.6,0.7c0,0.1,0,0.1,0.1,0.2l0.3,0.4l2.3,3.3l2.3-3.3L42,1.9
	C42,1.8,42.1,1.7,42.1,1.7L42.1,1.7z"/>
<g>
	<path class="st0" d="M40.3,12.1h-1.8c-1.6,0-3,1.3-3,2.9v6.6h1.3v-6.4c0-0.6,0.5-1,1-1h3c0.6,0,1,0.5,1,1v6.4h1.3V15
		C43.3,13.4,42,12.1,40.3,12.1z"/>
	<path class="st0" d="M39.4,24.9c-1.2,0-2.3-1-2.3-2.2v-6.1c0-1.2,1-2.2,2.3-2.2s2.3,1,2.3,2.2v6.1C41.7,23.9,40.7,24.9,39.4,24.9z"
		/>
	<path class="st0" d="M45.4,8.3l-0.2-2.6l0.1-0.1c-0.2-0.7-0.6-1.4-1.1-2h3.7V3h-4.6c-0.3-0.2-0.7-0.4-1.1-0.5l0.7-1.1
		C43,1.3,43,1.2,43,1.1c0-0.5-1.6-1-3.6-1c-2,0-3.6,0.4-3.6,0.9c0,0.1,0.1,0.2,0.1,0.2l0.7,1.1c-0.4,0.1-0.8,0.3-1.1,0.5h-4.6v0.8
		h3.7c-0.5,0.6-0.9,1.2-1.1,2l0.1,0.1l-0.2,2.6v5.3l1,3.8h0.6V15c0-1.9,1.6-3.4,3.5-3.4h1.8c1.9,0,3.5,1.5,3.5,3.4v2.5h0.6l1-3.8
		L45.4,8.3L45.4,8.3z M33.8,7.6L34,5.8l2,0.9c0.6,0.3,1,0.8,1.1,1.5L37.2,9l-2.7-0.5C34,8.4,33.8,8.1,33.8,7.6z M38.4,3.6l-1.2-1.3
		l-0.3-0.4c0,0-0.1-0.1-0.1-0.2C36.8,1.3,38,1,39.4,1s2.6,0.3,2.6,0.7c0,0.1,0,0.1-0.1,0.2l-0.3,0.4l-1.2,1.3
		C40,4.2,39,4.2,38.4,3.6C38.4,3.7,38.4,3.6,38.4,3.6L38.4,3.6z M44.9,5.9l0.2,1.8c0,0.4-0.3,0.8-0.7,0.9l-2.7,0.5l0.1-0.8
		c0.1-0.6,0.5-1.2,1.1-1.5L44.9,5.9z"/>
</g>
</svg>
