<?xml version="1.0" encoding="utf-8"?>
<!-- Generator: Adobe Illustrator 22.1.0, SVG Export Plug-In . SVG Version: 6.00 Build 0)  -->
<svg version="1.1" id="Layer_1" xmlns="http://www.w3.org/2000/svg" xmlns:xlink="http://www.w3.org/1999/xlink" x="0px" y="0px"
	 viewBox="0 0 26 26" style="enable-background:new 0 0 26 26;" xml:space="preserve">
<style type="text/css">
	.st0{fill:#FFFFFF;}
	.st1{fill:#7F7F7F;}
</style>
<g>
	<path class="st0" d="M13.3,16.2h-0.5c-0.9,0-1.6,0.7-1.6,1.6c0,0,0,0,0,0v5.5c0,0.9,0.7,1.6,1.6,1.6h0.5c0.9,0,1.6-0.7,1.6-1.6
		c0,0,0,0,0,0v-5.5C14.9,17,14.2,16.2,13.3,16.2C13.3,16.2,13.3,16.2,13.3,16.2z"/>
	<path class="st0" d="M20.3,3.6h-2.4v0.3h-1.6C16.1,2.3,14.7,1,13,1c-1.7,0-3.1,1.2-3.3,2.9H8.1V3.6H5.7c-0.5,0-0.8,0.4-0.8,0.8
		c0,0.5,0.4,0.8,0.8,0.8h2.4V4.9h1.6c0.2,1.1,0.9,2,1.8,2.5v0.8h-1.2c-1.7,0-3,1.3-3.1,3l-0.5,6.9c-0.1,1.8,1.3,3.2,3.1,3.2h0.5
		v-3.8c0-1.3,1.1-2.4,2.4-2.4h0.8c1.3,0,2.4,1.1,2.4,2.4v3.8h0.5c1.8,0,3.2-1.5,3.1-3.2l-0.5-6.9c-0.1-1.7-1.4-3-3.1-3h-1.2V7.4
		C15.5,7,16.2,6,16.4,5h1.6v0.3h2.4c0.5,0,0.8-0.4,0.8-0.8C21.1,4,20.8,3.6,20.3,3.6L20.3,3.6z M14.6,10.3c0,0.4-0.7,0.7-1.6,0.7
		s-1.6-0.3-1.6-0.7c0-0.4,0.7-0.7,1.6-0.7S14.6,9.9,14.6,10.3z M13,6.7c-1.2,0-2.2-1-2.3-2.2c0-1.2,1-2.2,2.3-2.2
		c1.2,0,2.3,1,2.3,2.2C15.2,5.7,14.2,6.7,13,6.7z"/>
</g>
<path class="st1" d="M36.8,24.5h-0.6c-1.2,0-2.1-0.9-2.1-2.1v-7.9c0-1.2,0.9-2.1,2.1-2.1h0.6c1.1,0,2.1,0.9,2.1,2.1v7.9
	C38.8,23.6,37.9,24.5,36.8,24.5z"/>
<path class="st1" d="M45.3,3.5L41.2,2l-1.9,1.7c-0.2,0-0.4-0.1-0.6-0.1h-0.3l-0.4-0.7h-3.3l-0.4,0.7h-0.3c-0.2,0-0.4,0-0.6,0.1
	L31.7,2l-4.1,1.4l0.3,0.8l2.8-1c-0.5,0.4-1,1-1.2,1.9c-0.2,0.1-0.3,0.2-0.3,0.4c0,0.2,0.2,0.4,0.4,0.4C29.8,6,30,5.8,30,5.6
	c0-0.1-0.1-0.3-0.2-0.3c0.3-1.3,1.5-2,1.7-2.1l1.2,1.1c-0.3,0.3-0.4,0.7-0.4,1.1v0.3h-0.1c-0.8,0-1.5,0.7-1.5,1.5v0.8
	c0,0.8,0.7,1.5,1.5,1.5h0.1v5.1h-1.4v3.6h-0.9v0.9h1.1c0,0,0,0.1,0.1,0.1l0.7,0.9h1.6v-8.6h5.9v8.6h1.5l0.7-0.9c0,0,0-0.1,0-0.1h1.1
	v-0.9h-0.9v-3.7h-1.4V9.4h0.1c0.8,0,1.5-0.7,1.5-1.5V7.1c0-0.8-0.7-1.5-1.5-1.5h-0.1V5.4c0-0.4-0.2-0.8-0.4-1.1l1.2-1.1
	C41.5,3.3,42.7,4,43,5.3c-0.1,0.1-0.2,0.2-0.2,0.3c0,0.2,0.2,0.4,0.4,0.4s0.4-0.2,0.4-0.4c0-0.2-0.1-0.4-0.3-0.4
	c-0.2-0.9-0.8-1.5-1.2-1.9l2.9,1C45,4.3,45.3,3.5,45.3,3.5z M36.4,9.8c-1.4,0-2.5-1.1-2.5-2.5c0,0,0,0,0,0c0-1.4,1.1-2.5,2.5-2.5
	c1.4,0,2.5,1.1,2.5,2.5c0,0,0,0,0,0C39,8.7,37.8,9.8,36.4,9.8L36.4,9.8z"/>
<path class="st1" d="M65.6,1.7C65.6,1.3,64.5,1,63,1s-2.6,0.3-2.6,0.7c0,0.1,0,0.1,0.1,0.2l0.3,0.4L63,5.6l2.3-3.3l0.3-0.4
	C65.6,1.8,65.6,1.7,65.6,1.7L65.6,1.7z"/>
<path class="st1" d="M65.6,1.7C65.6,1.3,64.5,1,63,1s-2.6,0.3-2.6,0.7c0,0.1,0,0.1,0.1,0.2l0.3,0.4L63,5.6l2.3-3.3l0.3-0.4
	C65.6,1.8,65.6,1.7,65.6,1.7L65.6,1.7z"/>
<path class="st1" d="M63.9,12.1h-1.8c-1.6,0-3,1.3-3,2.9v6.6h1.3v-6.4c0-0.6,0.5-1,1-1h3c0.6,0,1,0.5,1,1v6.4h1.3V15
	C66.9,13.4,65.5,12.1,63.9,12.1z"/>
<path class="st1" d="M63,24.9c-1.2,0-2.3-1-2.3-2.2v-6.1c0-1.2,1-2.2,2.3-2.2s2.3,1,2.3,2.2v6.1C65.3,23.9,64.2,24.9,63,24.9z"/>
<path class="st1" d="M69,8.3l-0.2-2.6l0.1-0.1c-0.2-0.7-0.6-1.4-1.1-2h3.7V3h-4.6c-0.3-0.2-0.7-0.4-1.1-0.5l0.7-1.1
	c0.1-0.1,0.1-0.1,0.1-0.2c0-0.5-1.6-1-3.6-1c-2,0-3.6,0.4-3.6,0.9c0,0.1,0.1,0.2,0.1,0.2l0.7,1.1c-0.4,0.1-0.8,0.3-1.1,0.5h-4.6v0.8
	h3.7c-0.5,0.6-0.9,1.2-1.1,2l0.1,0.1L57,8.3v5.3l1,3.8h0.6V15c0-1.9,1.6-3.4,3.5-3.4h1.8c1.9,0,3.5,1.5,3.5,3.4v2.5H68l1-3.8L69,8.3
	L69,8.3z M57.4,7.6l0.2-1.8l2,0.9c0.6,0.3,1,0.8,1.1,1.5L60.7,9L58,8.5C57.6,8.4,57.3,8.1,57.4,7.6z M61.9,3.6l-1.2-1.3l-0.3-0.4
	c0,0-0.1-0.1-0.1-0.2C60.4,1.3,61.5,1,63,1s2.6,0.3,2.6,0.7c0,0.1,0,0.1-0.1,0.2l-0.3,0.4l-1.2,1.3C63.5,4.2,62.6,4.2,61.9,3.6
	C62,3.7,62,3.6,61.9,3.6L61.9,3.6z M68.5,5.9l0.2,1.8c0,0.4-0.3,0.8-0.7,0.9l-2.7,0.5l0.1-0.8c0.1-0.6,0.5-1.2,1.1-1.5L68.5,5.9z"/>
</svg>
