<?xml version="1.0" encoding="utf-8"?>
<!-- Generator: Adobe Illustrator 22.1.0, SVG Export Plug-In . SVG Version: 6.00 Build 0)  -->
<svg version="1.1" id="Layer_1" xmlns="http://www.w3.org/2000/svg" xmlns:xlink="http://www.w3.org/1999/xlink" x="0px" y="0px"
	 viewBox="0 0 26 26" style="enable-background:new 0 0 26 26;" xml:space="preserve">
<style type="text/css">
	.st0{fill:#7F7F7F;}
	.st1{fill:#FFFFFF;}
</style>
<g>
	<path class="st0" d="M-11.5-11.5H-12c-0.9,0-1.6,0.7-1.6,1.6c0,0,0,0,0,0v5.5c0,0.9,0.7,1.6,1.6,1.6h0.5c0.9,0,1.6-0.7,1.6-1.6
		c0,0,0,0,0,0v-5.5C-9.8-10.8-10.6-11.5-11.5-11.5C-11.5-11.5-11.5-11.5-11.5-11.5z"/>
	<path class="st0" d="M-4.4-24.2h-2.4v0.3h-1.6c-0.3-1.6-1.7-2.9-3.4-2.9c-1.7,0-3.1,1.2-3.3,2.9h-1.6v-0.3H-19
		c-0.5,0-0.8,0.4-0.8,0.8c0,0.5,0.4,0.8,0.8,0.8h2.4v-0.3h1.6c0.2,1.1,0.9,2,1.8,2.5v0.8h-1.2c-1.7,0-3,1.3-3.1,3l-0.5,6.9
		c-0.1,1.8,1.3,3.2,3.1,3.2h0.5v-3.8c0-1.3,1.1-2.4,2.4-2.4h0.8c1.3,0,2.4,1.1,2.4,2.4v3.8h0.5c1.8,0,3.2-1.5,3.1-3.2l-0.5-6.9
		c-0.1-1.7-1.4-3-3.1-3h-1.2v-0.8c1-0.5,1.7-1.4,1.8-2.5h1.6v0.3h2.4c0.5,0,0.8-0.4,0.8-0.8C-3.6-23.8-4-24.2-4.4-24.2L-4.4-24.2z
		 M-10.1-17.5c0,0.4-0.7,0.7-1.6,0.7s-1.6-0.3-1.6-0.7c0-0.4,0.7-0.7,1.6-0.7S-10.1-17.9-10.1-17.5z M-11.8-21.1
		c-1.2,0-2.2-1-2.3-2.2c0-1.2,1-2.2,2.3-2.2c1.2,0,2.3,1,2.3,2.2C-9.5-22.1-10.5-21.1-11.8-21.1z"/>
</g>
<g>
	<path class="st1" d="M-28.4-0.5H-29c-1.2,0-2.1-0.9-2.1-2.1v-7.9c0-1.2,0.9-2.1,2.1-2.1h0.6c1.1,0,2.1,0.9,2.1,2.1v7.9
		C-26.3-1.5-27.3-0.5-28.4-0.5z"/>
	<path class="st1" d="M-19.9-21.6L-24-23l-1.9,1.7c-0.2,0-0.4-0.1-0.6-0.1h-0.3l-0.4-0.7h-3.3l-0.4,0.7h-0.3c-0.2,0-0.4,0-0.6,0.1
		l-1.9-1.7l-4.1,1.4l0.3,0.8l2.8-1c-0.5,0.4-1,1-1.2,1.9c-0.2,0.1-0.3,0.2-0.3,0.4c0,0.2,0.2,0.4,0.4,0.4c0.2,0,0.4-0.2,0.4-0.4
		c0-0.1-0.1-0.3-0.2-0.3c0.3-1.3,1.5-2,1.7-2.1l1.2,1.1c-0.3,0.3-0.4,0.7-0.4,1.1v0.3h-0.1c-0.8,0-1.5,0.7-1.5,1.5v0.8
		c0,0.8,0.7,1.5,1.5,1.5h0.1v5.1h-1.4V-7h-0.9v0.9h1.1c0,0,0,0.1,0.1,0.1l0.7,0.9h1.6v-8.6h5.9v8.6h1.5l0.7-0.9c0,0,0-0.1,0-0.1h1.1
		V-7h-0.9v-3.7h-1.4v-5.1h0.1c0.8,0,1.5-0.7,1.5-1.5v-0.8c0-0.8-0.7-1.5-1.5-1.5h-0.1v-0.3c0-0.4-0.2-0.8-0.4-1.1l1.2-1.1
		c0.2,0.1,1.4,0.8,1.7,2.1c-0.1,0.1-0.2,0.2-0.2,0.3c0,0.2,0.2,0.4,0.4,0.4s0.4-0.2,0.4-0.4c0-0.2-0.1-0.4-0.3-0.4
		c-0.2-0.9-0.8-1.5-1.2-1.9l2.9,1C-20.2-20.7-19.9-21.6-19.9-21.6z M-28.7-15.2c-1.4,0-2.5-1.1-2.5-2.5c0,0,0,0,0,0
		c0-1.4,1.1-2.5,2.5-2.5c1.4,0,2.5,1.1,2.5,2.5c0,0,0,0,0,0C-26.2-16.4-27.3-15.2-28.7-15.2L-28.7-15.2z"/>
</g>
<path class="st0" d="M16.6,1.7c0-0.4-1.2-0.7-2.6-0.7s-2.6,0.3-2.6,0.7c0,0.1,0,0.1,0.1,0.2l0.3,0.4l2.3,3.3l2.3-3.3l0.3-0.4
	C16.5,1.8,16.6,1.7,16.6,1.7L16.6,1.7z"/>
<g>
	<path class="st1" d="M15.6,2.2c0-0.4-1.2-0.7-2.6-0.7s-2.6,0.3-2.6,0.7c0,0.1,0,0.1,0.1,0.2l0.3,0.4L13,6l2.3-3.3l0.3-0.4
		C15.6,2.3,15.6,2.2,15.6,2.2L15.6,2.2z"/>
	<path class="st1" d="M13.9,12.6h-1.8c-1.6,0-3,1.3-3,2.9V22h1.3v-6.4c0-0.6,0.5-1,1-1h3c0.6,0,1,0.5,1,1V22h1.3v-6.6
		C16.8,13.9,15.5,12.6,13.9,12.6z"/>
	<path class="st1" d="M13,25.4c-1.2,0-2.3-1-2.3-2.2v-6.1c0-1.2,1-2.2,2.3-2.2s2.3,1,2.3,2.2v6.1C15.2,24.4,14.2,25.4,13,25.4z"/>
	<path class="st1" d="M19,8.8l-0.2-2.6l0.1-0.1c-0.2-0.7-0.6-1.4-1.1-2h3.7V3.4h-4.6c-0.3-0.2-0.7-0.4-1.1-0.5l0.7-1.1
		c0.1-0.1,0.1-0.1,0.1-0.2c0-0.5-1.6-1-3.6-1c-2,0-3.6,0.4-3.6,0.9c0,0.1,0.1,0.2,0.1,0.2l0.7,1.1C9.8,3,9.5,3.2,9.1,3.4H4.5v0.8
		h3.7c-0.5,0.6-0.9,1.2-1.1,2l0.1,0.1L7,8.8v5.3l1,3.8h0.6v-2.5c0-1.9,1.6-3.4,3.5-3.4h1.8c1.9,0,3.5,1.5,3.5,3.4v2.5H18l1-3.8
		L19,8.8L19,8.8z M7.3,8.1l0.2-1.8l2,0.9c0.6,0.3,1,0.8,1.1,1.5l0.1,0.8L8,9C7.6,8.9,7.3,8.5,7.3,8.1z M11.9,4.1l-1.2-1.3l-0.3-0.4
		c0,0-0.1-0.1-0.1-0.2c0-0.4,1.2-0.7,2.6-0.7s2.6,0.3,2.6,0.7c0,0.1,0,0.1-0.1,0.2l-0.3,0.4L14,4.1C13.5,4.7,12.6,4.7,11.9,4.1
		C12,4.2,11.9,4.1,11.9,4.1L11.9,4.1z M18.4,6.4l0.2,1.8c0,0.4-0.3,0.8-0.7,0.9l-2.7,0.5l0.1-0.8c0.1-0.6,0.5-1.2,1.1-1.5L18.4,6.4z
		"/>
</g>
</svg>
