<?xml version="1.0" encoding="utf-8"?>
<!-- Generator: Adobe Illustrator 22.1.0, SVG Export Plug-In . SVG Version: 6.00 Build 0)  -->
<svg version="1.1" id="Layer_1" xmlns="http://www.w3.org/2000/svg" xmlns:xlink="http://www.w3.org/1999/xlink" x="0px" y="0px"
	 viewBox="0 0 106 106" style="enable-background:new 0 0 106 106;" xml:space="preserve">
<style type="text/css">
	.st0{fill:#FFFFFF;}
</style>
<g>
	<path class="st0" d="M102.1,53.8l-10.3-1.4l-5.9-10.3c-1.6-2.8-4.6-4.5-7.8-4.5H66.8c-1.1,0-2,0.9-2,2v20.5c0,1.1-0.9,2-2,2H12.5
		c-1.1,0-2,0.9-2,2v6.1c0,1.1,0.9,2,2,2H17c0.4,4.6,4.2,8.2,8.9,8.2s8.5-3.6,8.9-8.2h46.4c0.4,4.6,4.2,8.2,8.9,8.2s8.5-3.6,8.9-8.2
		h2.7c2.2,0,4-1.8,4-4V57.8C105.5,55.8,104,54.1,102.1,53.8z M25.9,76.1c-2.6,0-4.7-2.1-4.7-4.7c0-2.6,2.1-4.7,4.7-4.7
		s4.7,2.1,4.7,4.7C30.6,74,28.4,76.1,25.9,76.1z M71.2,52.2v-9H78c1.2,0,2.3,0.7,2.9,1.7l4.2,7.3C85.1,52.2,71.2,52.2,71.2,52.2z
		 M89.9,76.1c-2.6,0-4.7-2.1-4.7-4.7c0-2.6,2.1-4.7,4.7-4.7s4.7,2.1,4.7,4.7C94.6,74,92.5,76.1,89.9,76.1z"/>
	<path class="st0" d="M10.5,54c0.2,0,0.3,0,0.5,0c6.1,0,11-4.9,11-11s-4.9-11-11-11c-0.2,0-0.3,0-0.5,0v-4.3c0-1.1,0.9-2,2-2H60
		c1.1,0,2,0.9,2,2v29.6c0,1.1-0.9,2-2,2H12.5c-1.1,0-2-0.9-2-2C10.5,57.3,10.5,54,10.5,54z"/>
	<g>
		<path class="st0" d="M11,34c5,0,9,4,9,9s-4,9-9,9s-9-4-9-9S6,34,11,34z M11,36.7c-0.3,0-0.5,0.2-0.5,0.5c0,0,0,0,0,0v5.2H5.8
			c-0.3,0-0.5,0.2-0.5,0.5s0.2,0.5,0.5,0.5H11c0.3,0,0.5-0.2,0.5-0.5l0,0v-5.7C11.5,37,11.3,36.7,11,36.7C11,36.7,11,36.7,11,36.7z"
			/>
	</g>
</g>
</svg>
