<?xml version="1.0" encoding="utf-8"?>
<!-- Generator: Adobe Illustrator 22.1.0, SVG Export Plug-In . SVG Version: 6.00 Build 0)  -->
<svg version="1.1" id="Layer_1" xmlns="http://www.w3.org/2000/svg" xmlns:xlink="http://www.w3.org/1999/xlink" x="0px" y="0px"
	 viewBox="0 0 67 67" style="enable-background:new 0 0 67 67;" xml:space="preserve">
<style type="text/css">
	.st0{fill:#FADBD2;}
	.st1{filter:url(#Adobe_OpacityMaskFilter);}
	.st2{fill:#FFFFFF;}
	.st3{mask:url(#b_1_);}
	.st4{filter:url(#c);}
	.st5{fill:#F86430;}
	.st6{opacity:0.281;}
	.st7{filter:url(#e);}
</style>
<filter  filterUnits="objectBoundingBox" height="176.7%" id="e" width="146%" x="-23%" y="-31.7%">
	<feOffset  dy="2" in="SourceAlpha" result="shadowOffsetOuter1"></feOffset>
	<feGaussianBlur  in="shadowOffsetOuter1" result="shadowBlurOuter1" stdDeviation="3.5"></feGaussianBlur>
	<feColorMatrix  in="shadowBlurOuter1" values="0 0 0 0 0.97254902 0 0 0 0 0.392156863 0 0 0 0 0.188235294 0 0 0 0.649739583 0">
		</feColorMatrix>
</filter>
<filter  filterUnits="objectBoundingBox" height="166.7%" id="c" width="166.7%" x="-33.3%" y="-28.2%">
	<feOffset  dy="2" in="SourceAlpha" result="shadowOffsetOuter1"></feOffset>
	<feGaussianBlur  in="shadowOffsetOuter1" result="shadowBlurOuter1" stdDeviation="4"></feGaussianBlur>
	<feColorMatrix  in="shadowBlurOuter1" values="0 0 0 0 0.97254902 0 0 0 0 0.392156863 0 0 0 0 0.188235294 0 0 0 0.526834239 0">
		</feColorMatrix>
</filter>
<g>
	<g transform="translate(10 49)">
		<g>
			<circle id="a_1_" class="st0" cx="23.5" cy="-15.5" r="33.5"/>
		</g>
		<defs>
			<filter id="Adobe_OpacityMaskFilter" filterUnits="userSpaceOnUse" x="-17" y="-37" width="65" height="65">
				<feColorMatrix  type="matrix" values="1 0 0 0 0  0 1 0 0 0  0 0 1 0 0  0 0 0 1 0"/>
			</filter>
		</defs>
		<mask maskUnits="userSpaceOnUse" x="-17" y="-37" width="65" height="65" id="b_1_">
			<g class="st1">
				<circle id="a_2_" class="st2" cx="23.5" cy="-15.5" r="33.5"/>
			</g>
		</mask>
		<g transform="matrix(-1 0 0 1 51 0)" class="st3">
			<g class="st4">
				<path id="d_2_" d="M54.4,9.3l-9.6-9.6c4.8-6.3,4.3-15.3-1.4-21c-3-3-7.1-4.7-11.3-4.7c-4.1,0-8.2,1.5-11.3,4.7
					c-6.3,6.3-6.3,16.4,0,22.7c3,3,7.1,4.7,11.3,4.7c3.4,0,6.8-1.1,9.7-3.3l9.6,9.5c0.4,0.4,1,0.6,1.5,0.6c0.6,0,1.1-0.2,1.5-0.6
					C55.2,11.5,55.2,10.1,54.4,9.3z M32.1,1.7c-3.2,0-6-1.2-8.3-3.4c-4.5-4.5-4.5-12,0-16.6c2.2-2.2,5.1-3.4,8.3-3.4
					c3.2,0,6,1.2,8.3,3.4c2.2,2.2,3.4,5.1,3.4,8.3c0,3.2-1.2,6-3.4,8.3C38.2,0.6,35.2,1.7,32.1,1.7z"/>
			</g>
			<g>
				<path id="d_1_" class="st5" d="M54.4,9.3l-9.6-9.6c4.8-6.3,4.3-15.3-1.4-21c-3-3-7.1-4.7-11.3-4.7c-4.1,0-8.2,1.5-11.3,4.7
					c-6.3,6.3-6.3,16.4,0,22.7c3,3,7.1,4.7,11.3,4.7c3.4,0,6.8-1.1,9.7-3.3l9.6,9.5c0.4,0.4,1,0.6,1.5,0.6c0.6,0,1.1-0.2,1.5-0.6
					C55.2,11.5,55.2,10.1,54.4,9.3z M32.1,1.7c-3.2,0-6-1.2-8.3-3.4c-4.5-4.5-4.5-12,0-16.6c2.2-2.2,5.1-3.4,8.3-3.4
					c3.2,0,6,1.2,8.3,3.4c2.2,2.2,3.4,5.1,3.4,8.3c0,3.2-1.2,6-3.4,8.3C38.2,0.6,35.2,1.7,32.1,1.7z"/>
			</g>
		</g>
	</g>
	<g transform="matrix(-1 0 0 1 88 0)" class="st6">
		<g class="st7">
			<path id="f_2_" d="M60.6,39.6l7-2.6l5.7-2c0.3,0.6,0.5,1.1,0.7,1.9l-5.7,1.8l-7.8,2.1L59,41l0-0.1C59,40.9,60.6,39.6,60.6,39.6z
				 M70.5,35.8c0.3,0,0.6,0,0.8,0.1L74,35l-2.7,0.9L68,37C68.6,36.3,69.4,35.9,70.5,35.8z M70,42c-1.4,0-2.6-0.9-3-2.2l1.2-0.3
				l0.3-0.1c0.3,0.8,1.2,1.2,1.9,0.9c0.6-0.2,1-0.8,1-1.4c0-0.1,0-0.2-0.1-0.4l-2.3,0.8l3.9-1.3c0.1,0.3,0.1,0.6,0.2,0.8
				C73,40.5,71.7,41.9,70,42z M53.9,29.9c-3.4-0.8-7.8-0.1-7.8,0L46,29.3c0.2,0,4.5-0.7,8,0c3.5,0.8,5.9,4.2,6,4.3L59.6,34
				C59.6,34,57.3,30.6,53.9,29.9L53.9,29.9z M42.6,24c-0.4-0.1-2.2-1.5-2.6-2l1.1-1c0.7,0.6,1.4,1.1,1.9,1.7
				C42.9,23.2,42.7,23.6,42.6,24L42.6,24z M42,28.5L40.8,31L40,30.6l1.1-2.6C41.4,28.1,41.7,28.3,42,28.5L42,28.5L42,28.5z M37.9,37
				c-0.3-0.2-0.6-0.4-0.9-0.5l3.1-5.5l0.9,0.4L37.9,37z M39.4,35.4l0.6,1.8l-0.5,0.9L39,38.2c0,0.3-0.1,0.6-0.2,0.9
				c-0.6,1.5-2.4,2.3-3.9,1.6c-1.5-0.6-2.3-2.4-1.7-3.9c0,0,0,0,0,0c0.6-1.4,2.1-2.1,3.5-1.8l-0.6,1.1c0,0-0.1,0-0.1,0
				c-1,0-1.9,0.9-1.9,1.9c0,1.1,0.9,1.9,1.9,1.9l0.1,0c1-0.1,1.8-1,1.8-2c0-0.2-0.1-0.5-0.2-0.7c-0.1-0.1-0.1-0.3-0.2-0.4l0.5-1l0,0
				l0.3-0.5l0.5-0.2C38.9,35.2,39.4,35.4,39.4,35.4z M37,25L37,25L37,25L37,25L37,25z M43,18L43,18L43,18L43,18z M79,36.1
				c-0.3-1.1-0.6-2.2-1-3.3l0.3,0.2l0.3-0.2l-0.9-1.9l0.3,0v-0.1l0.2-0.1l0-1.3l-0.3-0.2h-0.2l-0.1-0.1l0,0c-0.1,0-0.3,0-0.4,0.1
				c-0.1-0.4-0.1-1.5-0.1-2c0.1-0.8,0.4-3.1-0.1-3.4c-0.6-0.4-3.9-0.3-4.4,0c-0.3,0.2-0.2,1.7-0.1,2.7l-0.1,0.2
				c-0.4,0.7-1,1.5-1.4,1.8l0,0l0,0l0,0c-0.7,0.5-7,1.8-7.8,1.8c-0.1,0-0.1,0-0.2,0c-0.8,0-2-0.2-2.4-0.7c-0.2-0.3-0.5-0.8-0.9-1.4
				c-0.3-0.4-0.6-0.8-0.8-1.1c0.1,0.1-0.1-0.2-0.3-0.4c0,0-2-1.8-4.7-2.4v-0.1c0,0,0-0.1,0-0.1c-0.6-0.2-1.2-0.2-1.8-0.2h0
				c0,0,0,0.1,0,0.1l0,0.1c-3.1-0.1-4.2,0.6-6.3,1.3L45,24.2l0.1-0.4l0.3,0.2c0,0,0.3,0.2,0.4,0.4c0.1,0.2,0.3,0.6,0.5,0.6
				c0.1,0,0.1-0.2,0.1-0.2c0,0-0.3-0.6-0.4-0.8l0.6,0.5c0,0,0,0.2,0.1,0.2c0,0,0.5,0.4,0.7,0c0.1-0.2,0.1-0.4,0-0.5l0,0L47,23.8
				l-0.5-0.5c0,0-0.1-0.3-0.1-0.4c0-0.1-0.9-0.7-1-0.7l0.1-0.4c0,0-1.6-0.8-2.6-1.1l-0.1,0l-0.3,0.8l0,0.1l-1-0.9c0,0,2-1.9,1.9-1.9
				c0.8-0.7,1.7-1.6,2.4-2.3c0.2-0.3,0.2-0.4-0.1-0.5c-0.6-0.1-1.1-0.1-1.7-0.1c-1.5,0.6-3,1-4.8,3L39.1,19l0-2.1
				c0,0-1.5,0.3-0.4,2.5l0,0c-0.5,0.7-1,1.3-1.5,2l0,0l0,0l0,0l0,0c-0.9,1.6-1.4,3.5-1.5,5.7c1.6,0.4,3.2,0.6,4.7,0.7
				c0.2,0,0.4,0,0.6,0.1l-1.2,2.5l-0.2-0.1l-0.2,0.4c-2.4-0.7-4.4-0.7-6.1,0.1c0,0-0.1,0.1-0.1,0.1c0,0,0.1,0.1,0.2,0.1
				c0.3,0.1,0.8,0.1,1.2,0.1c0,0,0.1,0,0.1,0c0.1,0,0.2,0,0.3,0l0.1,0c0.1,0,0.2,0,0.3,0l0.1,0l0.4,0c0.2,0,0.4,0,0.7,0h0l0,0
				c0.1,0,0.3,0.1,0.4,0.1c0,0,0.1,0,0.1,0c0.1,0,0.1,0.1,0.2,0.1c0,0,0.1,0,0.1,0.1c0.1,0,0.1,0.1,0.2,0.1c0,0,0.1,0.1,0.1,0.1
				c0,0,0.1,0.1,0.1,0.1c0,0,0.1,0.1,0.1,0.1c0,0,0.1,0.1,0.1,0.1c0,0,0,0.1,0.1,0.1c0,0.1,0.1,0.1,0.1,0.2c0,0,0,0.1,0,0.1
				c0,0.1,0,0.1,0.1,0.2c0,0.1,0,0.1,0,0.2l0,0l-0.2,0.5c-0.1-1-0.6-1.6-1.6-1.8l-0.6,0c-0.9,0-1.5,0.1-2.1-0.1
				c-1.9,0.7-3.4,2.2-4.2,4.1c-1.5,3.7,0.3,8.1,4,9.6c3.7,1.5,8.1-0.3,9.6-4c0.3-0.8,0.5-1.7,0.6-2.6c0-0.3,0-0.7,0-1
				c-0.6-1.4-1.2-2.4-2-3c-0.9-0.6-1.4-0.4-1.7-0.2l0,0l0,0c-0.1,0-0.2-0.1-0.2-0.1l-0.1,0l0.2-0.4c0,0,0.2,0.1,0.2,0.1
				c0.5-0.3,1-0.4,1.9,0.3c0.1,0.1,0.2,0.2,0.3,0.2l0.1,0.1c0.1,0.1,0.1,0.1,0.2,0.2l0.1,0.1c0.1,0.1,0.2,0.2,0.2,0.3
				c0,0,0.1,0.1,0.1,0.1c0.1,0.1,0.1,0.2,0.2,0.2l0.1,0.2c0,0.1,0.1,0.1,0.1,0.2c0,0.1,0.1,0.1,0.1,0.2c0.2,0.4,0.5,1.1,0.8,1.7
				c0.2,0.2,0.3,0.3,0.5,0.2c-0.5-2.9-1.7-5-3.7-6.3l0.2-0.4L40.9,31l1.3-2.4c0.4,0.3,3.1,2.5,3.5,3.9c0.5,1.4,2.7,7.3,2.7,7.3
				c0.3,0.8,1.1,1.4,2.2,1.4v0H57l1.6,0.3l2.1-0.3l2.5-0.7c0.9,3.3,4,5.6,7.5,5.4c4.2-0.1,7.4-3.7,7.3-7.8c0-0.9-0.2-1.8-0.6-2.6
				c-1.2-2.9-4.1-4.7-7.2-4.6c-2.6,0.1-4.9,1.5-6.2,3.6l-0.4,0.7c-0.5,1-0.7,2-0.7,3.2L61,39.1l-0.5-0.8l1.7-1.7
				c0.3-3.6,3.6-5.2,4.7-5.7c1.1-0.5,2-0.8,3.9-0.9s5.3,1.3,6.8,5.3c0.3,0.6,0.8,1.1,1,1.1h0C78.8,36.3,78.9,36.3,79,36.1L79,36.1
				C79,36.1,79,36.1,79,36.1z"/>
		</g>
		<g>
			<path id="f_1_" class="st5" d="M60.6,39.6l7-2.6l5.7-2c0.3,0.6,0.5,1.1,0.7,1.9l-5.7,1.8l-7.8,2.1L59,41l0-0.1
				C59,40.9,60.6,39.6,60.6,39.6z M70.5,35.8c0.3,0,0.6,0,0.8,0.1L74,35l-2.7,0.9L68,37C68.6,36.3,69.4,35.9,70.5,35.8z M70,42
				c-1.4,0-2.6-0.9-3-2.2l1.2-0.3l0.3-0.1c0.3,0.8,1.2,1.2,1.9,0.9c0.6-0.2,1-0.8,1-1.4c0-0.1,0-0.2-0.1-0.4l-2.3,0.8l3.9-1.3
				c0.1,0.3,0.1,0.6,0.2,0.8C73,40.5,71.7,41.9,70,42z M53.9,29.9c-3.4-0.8-7.8-0.1-7.8,0L46,29.3c0.2,0,4.5-0.7,8,0
				c3.5,0.8,5.9,4.2,6,4.3L59.6,34C59.6,34,57.3,30.6,53.9,29.9L53.9,29.9z M42.6,24c-0.4-0.1-2.2-1.5-2.6-2l1.1-1
				c0.7,0.6,1.4,1.1,1.9,1.7C42.9,23.2,42.7,23.6,42.6,24L42.6,24z M42,28.5L40.8,31L40,30.6l1.1-2.6C41.4,28.1,41.7,28.3,42,28.5
				L42,28.5L42,28.5z M37.9,37c-0.3-0.2-0.6-0.4-0.9-0.5l3.1-5.5l0.9,0.4L37.9,37z M39.4,35.4l0.6,1.8l-0.5,0.9L39,38.2
				c0,0.3-0.1,0.6-0.2,0.9c-0.6,1.5-2.4,2.3-3.9,1.6c-1.5-0.6-2.3-2.4-1.7-3.9c0,0,0,0,0,0c0.6-1.4,2.1-2.1,3.5-1.8l-0.6,1.1
				c0,0-0.1,0-0.1,0c-1,0-1.9,0.9-1.9,1.9c0,1.1,0.9,1.9,1.9,1.9l0.1,0c1-0.1,1.8-1,1.8-2c0-0.2-0.1-0.5-0.2-0.7
				c-0.1-0.1-0.1-0.3-0.2-0.4l0.5-1l0,0l0.3-0.5l0.5-0.2C38.9,35.2,39.4,35.4,39.4,35.4z M37,25L37,25L37,25L37,25L37,25z M43,18
				L43,18L43,18L43,18z M79,36.1c-0.3-1.1-0.6-2.2-1-3.3l0.3,0.2l0.3-0.2l-0.9-1.9l0.3,0v-0.1l0.2-0.1l0-1.3l-0.3-0.2h-0.2l-0.1-0.1
				l0,0c-0.1,0-0.3,0-0.4,0.1c-0.1-0.4-0.1-1.5-0.1-2c0.1-0.8,0.4-3.1-0.1-3.4c-0.6-0.4-3.9-0.3-4.4,0c-0.3,0.2-0.2,1.7-0.1,2.7
				l-0.1,0.2c-0.4,0.7-1,1.5-1.4,1.8l0,0l0,0l0,0c-0.7,0.5-7,1.8-7.8,1.8c-0.1,0-0.1,0-0.2,0c-0.8,0-2-0.2-2.4-0.7
				c-0.2-0.3-0.5-0.8-0.9-1.4c-0.3-0.4-0.6-0.8-0.8-1.1c0.1,0.1-0.1-0.2-0.3-0.4c0,0-2-1.8-4.7-2.4v-0.1c0,0,0-0.1,0-0.1
				c-0.6-0.2-1.2-0.2-1.8-0.2h0c0,0,0,0.1,0,0.1l0,0.1c-3.1-0.1-4.2,0.6-6.3,1.3L45,24.2l0.1-0.4l0.3,0.2c0,0,0.3,0.2,0.4,0.4
				c0.1,0.2,0.3,0.6,0.5,0.6c0.1,0,0.1-0.2,0.1-0.2c0,0-0.3-0.6-0.4-0.8l0.6,0.5c0,0,0,0.2,0.1,0.2c0,0,0.5,0.4,0.7,0
				c0.1-0.2,0.1-0.4,0-0.5l0,0L47,23.8l-0.5-0.5c0,0-0.1-0.3-0.1-0.4c0-0.1-0.9-0.7-1-0.7l0.1-0.4c0,0-1.6-0.8-2.6-1.1l-0.1,0
				l-0.3,0.8l0,0.1l-1-0.9c0,0,2-1.9,1.9-1.9c0.8-0.7,1.7-1.6,2.4-2.3c0.2-0.3,0.2-0.4-0.1-0.5c-0.6-0.1-1.1-0.1-1.7-0.1
				c-1.5,0.6-3,1-4.8,3L39.1,19l0-2.1c0,0-1.5,0.3-0.4,2.5l0,0c-0.5,0.7-1,1.3-1.5,2l0,0l0,0l0,0l0,0c-0.9,1.6-1.4,3.5-1.5,5.7
				c1.6,0.4,3.2,0.6,4.7,0.7c0.2,0,0.4,0,0.6,0.1l-1.2,2.5l-0.2-0.1l-0.2,0.4c-2.4-0.7-4.4-0.7-6.1,0.1c0,0-0.1,0.1-0.1,0.1
				c0,0,0.1,0.1,0.2,0.1c0.3,0.1,0.8,0.1,1.2,0.1c0,0,0.1,0,0.1,0c0.1,0,0.2,0,0.3,0l0.1,0c0.1,0,0.2,0,0.3,0l0.1,0l0.4,0
				c0.2,0,0.4,0,0.7,0h0l0,0c0.1,0,0.3,0.1,0.4,0.1c0,0,0.1,0,0.1,0c0.1,0,0.1,0.1,0.2,0.1c0,0,0.1,0,0.1,0.1c0.1,0,0.1,0.1,0.2,0.1
				c0,0,0.1,0.1,0.1,0.1c0,0,0.1,0.1,0.1,0.1c0,0,0.1,0.1,0.1,0.1c0,0,0.1,0.1,0.1,0.1c0,0,0,0.1,0.1,0.1c0,0.1,0.1,0.1,0.1,0.2
				c0,0,0,0.1,0,0.1c0,0.1,0,0.1,0.1,0.2c0,0.1,0,0.1,0,0.2l0,0l-0.2,0.5c-0.1-1-0.6-1.6-1.6-1.8l-0.6,0c-0.9,0-1.5,0.1-2.1-0.1
				c-1.9,0.7-3.4,2.2-4.2,4.1c-1.5,3.7,0.3,8.1,4,9.6c3.7,1.5,8.1-0.3,9.6-4c0.3-0.8,0.5-1.7,0.6-2.6c0-0.3,0-0.7,0-1
				c-0.6-1.4-1.2-2.4-2-3c-0.9-0.6-1.4-0.4-1.7-0.2l0,0l0,0c-0.1,0-0.2-0.1-0.2-0.1l-0.1,0l0.2-0.4c0,0,0.2,0.1,0.2,0.1
				c0.5-0.3,1-0.4,1.9,0.3c0.1,0.1,0.2,0.2,0.3,0.2l0.1,0.1c0.1,0.1,0.1,0.1,0.2,0.2l0.1,0.1c0.1,0.1,0.2,0.2,0.2,0.3
				c0,0,0.1,0.1,0.1,0.1c0.1,0.1,0.1,0.2,0.2,0.2l0.1,0.2c0,0.1,0.1,0.1,0.1,0.2c0,0.1,0.1,0.1,0.1,0.2c0.2,0.4,0.5,1.1,0.8,1.7
				c0.2,0.2,0.3,0.3,0.5,0.2c-0.5-2.9-1.7-5-3.7-6.3l0.2-0.4L40.9,31l1.3-2.4c0.4,0.3,3.1,2.5,3.5,3.9c0.5,1.4,2.7,7.3,2.7,7.3
				c0.3,0.8,1.1,1.4,2.2,1.4v0H57l1.6,0.3l2.1-0.3l2.5-0.7c0.9,3.3,4,5.6,7.5,5.4c4.2-0.1,7.4-3.7,7.3-7.8c0-0.9-0.2-1.8-0.6-2.6
				c-1.2-2.9-4.1-4.7-7.2-4.6c-2.6,0.1-4.9,1.5-6.2,3.6l-0.4,0.7c-0.5,1-0.7,2-0.7,3.2L61,39.1l-0.5-0.8l1.7-1.7
				c0.3-3.6,3.6-5.2,4.7-5.7c1.1-0.5,2-0.8,3.9-0.9s5.3,1.3,6.8,5.3c0.3,0.6,0.8,1.1,1,1.1h0C78.8,36.3,78.9,36.3,79,36.1L79,36.1
				C79,36.1,79,36.1,79,36.1z"/>
		</g>
	</g>
</g>
</svg>
