<?xml version="1.0" encoding="utf-8"?>
<!-- Generator: Adobe Illustrator 22.1.0, SVG Export Plug-In . SVG Version: 6.00 Build 0)  -->
<svg version="1.1" id="Layer_1" xmlns="http://www.w3.org/2000/svg" xmlns:xlink="http://www.w3.org/1999/xlink" x="0px" y="0px"
	 viewBox="0 0 67.2 67" style="enable-background:new 0 0 67.2 67;" xml:space="preserve">
<style type="text/css">
	.st0{fill:#FADAD0;}
	.st1{filter:url(#a);}
	.st2{fill:#F86430;}
</style>
<filter  filterUnits="objectBoundingBox" height="176.7%" id="a" width="146%" x="-23%" y="-31.7%">
	<feOffset  dy="2" in="SourceAlpha" result="shadowOffsetOuter1"></feOffset>
	<feGaussianBlur  in="shadowOffsetOuter1" result="shadowBlurOuter1" stdDeviation="3.5"></feGaussianBlur>
	<feColorMatrix  in="shadowBlurOuter1" values="0 0 0 0 0.97254902 0 0 0 0 0.392156863 0 0 0 0 0.188235294 0 0 0 0.649739583 0">
		</feColorMatrix>
</filter>
<g>
	<circle class="st0" cx="33.7" cy="33.5" r="33.5"/>
	<g transform="matrix(-1 0 0 1 78 0)">
		<g class="st1">
			<path id="b_2_" d="M50.4,39.6l7-2.6l5.7-2c0.3,0.6,0.5,1.1,0.7,1.9l-5.7,1.8l-7.8,2.1L48.8,41l0-0.1
				C48.8,40.9,50.4,39.6,50.4,39.6z M60.3,35.8c0.3,0,0.6,0,0.8,0.1l2.7-0.9l-2.7,0.9L57.8,37C58.4,36.3,59.2,35.9,60.3,35.8z
				 M59.8,42c-1.4,0-2.6-0.9-3-2.2l1.2-0.3l0.3-0.1c0.3,0.8,1.2,1.2,1.9,0.9c0.6-0.2,1-0.8,1-1.4c0-0.1,0-0.2-0.1-0.4l-2.3,0.8
				l3.9-1.3c0.1,0.3,0.1,0.6,0.2,0.8C62.8,40.5,61.5,41.9,59.8,42z M43.7,29.9c-3.4-0.8-7.8-0.1-7.8,0l-0.1-0.5c0.2,0,4.5-0.7,8,0
				c3.5,0.8,5.9,4.2,6,4.3L49.4,34C49.4,34,47.1,30.6,43.7,29.9L43.7,29.9z M32.4,24c-0.4-0.1-2.2-1.5-2.6-2l1.1-1
				c0.7,0.6,1.4,1.1,1.9,1.7C32.7,23.2,32.5,23.6,32.4,24L32.4,24z M31.8,28.5L30.6,31l-0.8-0.4l1.1-2.6
				C31.2,28.1,31.5,28.3,31.8,28.5L31.8,28.5L31.8,28.5z M27.7,37c-0.3-0.2-0.6-0.4-0.9-0.5l3.1-5.5l0.9,0.4L27.7,37z M29.2,35.4
				l0.6,1.8l-0.5,0.9l-0.5,0.1c0,0.3-0.1,0.6-0.2,0.9c-0.6,1.5-2.4,2.3-3.9,1.6c-1.5-0.6-2.3-2.4-1.7-3.9c0,0,0,0,0,0
				c0.6-1.4,2.1-2.1,3.5-1.8l-0.5,1.1c0,0-0.1,0-0.1,0c-1,0-1.9,0.9-1.9,1.9c0,1.1,0.9,1.9,1.9,1.9l0.1,0c1-0.1,1.8-1,1.8-2
				c0-0.2-0.1-0.5-0.2-0.7c-0.1-0.1-0.1-0.3-0.2-0.4l0.5-1l0,0l0.3-0.5l0.5-0.2C28.7,35.2,29.2,35.4,29.2,35.4z M26.8,25L26.8,25
				L26.8,25L26.8,25L26.8,25z M32.8,18L32.8,18L32.8,18L32.8,18z M68.8,36.1c-0.3-1.1-0.6-2.2-1-3.3l0.3,0.2l0.3-0.2l-0.9-1.9l0.3,0
				v-0.1l0.2-0.1l0-1.3l-0.3-0.2h-0.2l-0.1-0.1l0,0c-0.1,0-0.3,0-0.4,0.1c-0.1-0.4-0.1-1.5-0.1-2c0.1-0.8,0.4-3.1-0.1-3.4
				c-0.6-0.4-3.9-0.3-4.4,0c-0.3,0.2-0.2,1.7-0.1,2.7L62,26.6c-0.4,0.7-1,1.5-1.4,1.8l0,0l0,0l0,0c-0.7,0.5-7,1.8-7.8,1.8
				c-0.1,0-0.1,0-0.2,0c-0.8,0-2-0.2-2.4-0.7c-0.2-0.3-0.5-0.8-0.9-1.4c-0.3-0.4-0.6-0.8-0.8-1.1c0.1,0.1-0.1-0.2-0.3-0.4
				c0,0-2-1.8-4.7-2.4v-0.1c0,0,0-0.1,0-0.1c-0.6-0.2-1.2-0.2-1.8-0.2h0c0,0,0,0.1,0,0.1l0,0.1c-3.1-0.1-4.2,0.6-6.3,1.3l-0.5-1.3
				l0.1-0.4l0.3,0.2c0,0,0.3,0.2,0.4,0.4c0.1,0.2,0.3,0.6,0.5,0.6c0.1,0,0.1-0.2,0.1-0.2c0,0-0.3-0.6-0.4-0.8l0.6,0.5
				c0,0,0,0.2,0.1,0.2c0,0,0.5,0.4,0.7,0c0.1-0.2,0.1-0.4,0-0.5l0,0l-0.4-0.2l-0.5-0.5c0,0-0.1-0.3-0.1-0.4c0-0.1-0.9-0.7-1-0.7
				l0.1-0.4c0,0-1.6-0.8-2.6-1.1l-0.1,0l-0.3,0.8l0,0.1l-1-0.9c0,0,2-1.9,1.9-1.9c0.8-0.7,1.7-1.6,2.4-2.3c0.2-0.3,0.2-0.4-0.1-0.5
				c-0.6,0-1.1-0.1-1.7-0.1c-1.5,0.6-3,1-4.8,3L28.9,19l0-2.1c0,0-1.5,0.3-0.4,2.5l0,0c-0.5,0.7-1,1.3-1.5,2l0,0l0,0l0,0l0,0
				c-0.9,1.6-1.4,3.5-1.5,5.7c1.6,0.4,3.2,0.6,4.7,0.7c0.2,0,0.4,0,0.6,0.1l-1.2,2.5l-0.2-0.1l-0.2,0.4c-2.4-0.7-4.4-0.7-6.1,0.1
				c0,0-0.1,0.1-0.1,0.1c0,0,0,0.1,0.2,0.1c0.3,0.1,0.8,0.1,1.2,0.1c0,0,0.1,0,0.1,0c0.1,0,0.2,0,0.3,0l0.1,0c0.1,0,0.2,0,0.3,0
				l0.1,0l0.4,0c0.2,0,0.4,0,0.7,0h0l0,0c0.1,0,0.3,0.1,0.4,0.1c0,0,0.1,0,0.1,0c0.1,0,0.1,0.1,0.2,0.1c0,0,0.1,0,0.1,0.1
				c0.1,0,0.1,0.1,0.2,0.1c0,0,0.1,0.1,0.1,0.1c0,0,0.1,0.1,0.1,0.1c0,0,0.1,0.1,0.1,0.1c0,0,0.1,0.1,0.1,0.1c0,0,0,0.1,0.1,0.1
				c0,0.1,0.1,0.1,0.1,0.2c0,0,0,0.1,0,0.1c0,0.1,0,0.1,0.1,0.2c0,0.1,0,0.1,0,0.2l0,0l-0.2,0.5c-0.1-1-0.6-1.6-1.6-1.8l-0.6,0
				c-0.9,0-1.5,0.1-2.1-0.1c-1.9,0.7-3.4,2.2-4.2,4.1c-1.5,3.7,0.3,8.1,4,9.6c3.7,1.5,8.1-0.3,9.6-4c0.3-0.8,0.5-1.7,0.6-2.6
				c0-0.3,0-0.7,0-1c-0.6-1.4-1.2-2.4-2-3c-0.9-0.6-1.4-0.4-1.7-0.2l0,0l0,0c-0.1,0-0.2-0.1-0.2-0.1l-0.1,0l0.2-0.4
				c0,0,0.2,0.1,0.2,0.1c0.5-0.3,1-0.4,1.9,0.3c0.1,0.1,0.2,0.2,0.3,0.2l0.1,0.1c0.1,0.1,0.1,0.1,0.2,0.2l0.1,0.1
				c0.1,0.1,0.2,0.2,0.2,0.3c0,0,0.1,0.1,0.1,0.1c0.1,0.1,0.1,0.2,0.2,0.2l0.1,0.2c0,0.1,0.1,0.1,0.1,0.2c0,0.1,0.1,0.1,0.1,0.2
				c0.2,0.4,0.5,1.1,0.8,1.7c0.2,0.2,0.3,0.3,0.5,0.2c-0.5-2.9-1.7-5-3.7-6.3l0.2-0.4L30.7,31l1.3-2.4c0.4,0.3,3.1,2.5,3.5,3.9
				c0.5,1.4,2.7,7.3,2.7,7.3c0.3,0.8,1.1,1.4,2.2,1.4v0h6.4l1.6,0.3l2.1-0.3l2.5-0.7c0.9,3.3,4,5.6,7.5,5.4c4.2-0.1,7.4-3.7,7.3-7.8
				c0-0.9-0.2-1.8-0.6-2.6c-1.2-2.9-4.1-4.7-7.2-4.6c-2.6,0.1-4.9,1.5-6.2,3.6l-0.4,0.7c-0.5,1-0.7,2-0.7,3.2l-1.9,0.7l-0.5-0.8
				l1.7-1.7c0.3-3.6,3.6-5.2,4.7-5.7c1.1-0.5,2-0.8,3.9-0.9c1.9-0.1,5.3,1.3,6.8,5.3c0.3,0.6,0.8,1.1,1,1.1h0
				C68.5,36.3,68.7,36.3,68.8,36.1L68.8,36.1C68.8,36.1,68.8,36.1,68.8,36.1z"/>
		</g>
		<g>
			<path id="b_1_" class="st2" d="M50.4,39.6l7-2.6l5.7-2c0.3,0.6,0.5,1.1,0.7,1.9l-5.7,1.8l-7.8,2.1L48.8,41l0-0.1
				C48.8,40.9,50.4,39.6,50.4,39.6z M60.3,35.8c0.3,0,0.6,0,0.8,0.1l2.7-0.9l-2.7,0.9L57.8,37C58.4,36.3,59.2,35.9,60.3,35.8z
				 M59.8,42c-1.4,0-2.6-0.9-3-2.2l1.2-0.3l0.3-0.1c0.3,0.8,1.2,1.2,1.9,0.9c0.6-0.2,1-0.8,1-1.4c0-0.1,0-0.2-0.1-0.4l-2.3,0.8
				l3.9-1.3c0.1,0.3,0.1,0.6,0.2,0.8C62.8,40.5,61.5,41.9,59.8,42z M43.7,29.9c-3.4-0.8-7.8-0.1-7.8,0l-0.1-0.5c0.2,0,4.5-0.7,8,0
				c3.5,0.8,5.9,4.2,6,4.3L49.4,34C49.4,34,47.1,30.6,43.7,29.9L43.7,29.9z M32.4,24c-0.4-0.1-2.2-1.5-2.6-2l1.1-1
				c0.7,0.6,1.4,1.1,1.9,1.7C32.7,23.2,32.5,23.6,32.4,24L32.4,24z M31.8,28.5L30.6,31l-0.8-0.4l1.1-2.6
				C31.2,28.1,31.5,28.3,31.8,28.5L31.8,28.5L31.8,28.5z M27.7,37c-0.3-0.2-0.6-0.4-0.9-0.5l3.1-5.5l0.9,0.4L27.7,37z M29.2,35.4
				l0.6,1.8l-0.5,0.9l-0.5,0.1c0,0.3-0.1,0.6-0.2,0.9c-0.6,1.5-2.4,2.3-3.9,1.6c-1.5-0.6-2.3-2.4-1.7-3.9c0,0,0,0,0,0
				c0.6-1.4,2.1-2.1,3.5-1.8l-0.5,1.1c0,0-0.1,0-0.1,0c-1,0-1.9,0.9-1.9,1.9c0,1.1,0.9,1.9,1.9,1.9l0.1,0c1-0.1,1.8-1,1.8-2
				c0-0.2-0.1-0.5-0.2-0.7c-0.1-0.1-0.1-0.3-0.2-0.4l0.5-1l0,0l0.3-0.5l0.5-0.2C28.7,35.2,29.2,35.4,29.2,35.4z M26.8,25L26.8,25
				L26.8,25L26.8,25L26.8,25z M32.8,18L32.8,18L32.8,18L32.8,18z M68.8,36.1c-0.3-1.1-0.6-2.2-1-3.3l0.3,0.2l0.3-0.2l-0.9-1.9l0.3,0
				v-0.1l0.2-0.1l0-1.3l-0.3-0.2h-0.2l-0.1-0.1l0,0c-0.1,0-0.3,0-0.4,0.1c-0.1-0.4-0.1-1.5-0.1-2c0.1-0.8,0.4-3.1-0.1-3.4
				c-0.6-0.4-3.9-0.3-4.4,0c-0.3,0.2-0.2,1.7-0.1,2.7L62,26.6c-0.4,0.7-1,1.5-1.4,1.8l0,0l0,0l0,0c-0.7,0.5-7,1.8-7.8,1.8
				c-0.1,0-0.1,0-0.2,0c-0.8,0-2-0.2-2.4-0.7c-0.2-0.3-0.5-0.8-0.9-1.4c-0.3-0.4-0.6-0.8-0.8-1.1c0.1,0.1-0.1-0.2-0.3-0.4
				c0,0-2-1.8-4.7-2.4v-0.1c0,0,0-0.1,0-0.1c-0.6-0.2-1.2-0.2-1.8-0.2h0c0,0,0,0.1,0,0.1l0,0.1c-3.1-0.1-4.2,0.6-6.3,1.3l-0.5-1.3
				l0.1-0.4l0.3,0.2c0,0,0.3,0.2,0.4,0.4c0.1,0.2,0.3,0.6,0.5,0.6c0.1,0,0.1-0.2,0.1-0.2c0,0-0.3-0.6-0.4-0.8l0.6,0.5
				c0,0,0,0.2,0.1,0.2c0,0,0.5,0.4,0.7,0c0.1-0.2,0.1-0.4,0-0.5l0,0l-0.4-0.2l-0.5-0.5c0,0-0.1-0.3-0.1-0.4c0-0.1-0.9-0.7-1-0.7
				l0.1-0.4c0,0-1.6-0.8-2.6-1.1l-0.1,0l-0.3,0.8l0,0.1l-1-0.9c0,0,2-1.9,1.9-1.9c0.8-0.7,1.7-1.6,2.4-2.3c0.2-0.3,0.2-0.4-0.1-0.5
				c-0.6,0-1.1-0.1-1.7-0.1c-1.5,0.6-3,1-4.8,3L28.9,19l0-2.1c0,0-1.5,0.3-0.4,2.5l0,0c-0.5,0.7-1,1.3-1.5,2l0,0l0,0l0,0l0,0
				c-0.9,1.6-1.4,3.5-1.5,5.7c1.6,0.4,3.2,0.6,4.7,0.7c0.2,0,0.4,0,0.6,0.1l-1.2,2.5l-0.2-0.1l-0.2,0.4c-2.4-0.7-4.4-0.7-6.1,0.1
				c0,0-0.1,0.1-0.1,0.1c0,0,0,0.1,0.2,0.1c0.3,0.1,0.8,0.1,1.2,0.1c0,0,0.1,0,0.1,0c0.1,0,0.2,0,0.3,0l0.1,0c0.1,0,0.2,0,0.3,0
				l0.1,0l0.4,0c0.2,0,0.4,0,0.7,0h0l0,0c0.1,0,0.3,0.1,0.4,0.1c0,0,0.1,0,0.1,0c0.1,0,0.1,0.1,0.2,0.1c0,0,0.1,0,0.1,0.1
				c0.1,0,0.1,0.1,0.2,0.1c0,0,0.1,0.1,0.1,0.1c0,0,0.1,0.1,0.1,0.1c0,0,0.1,0.1,0.1,0.1c0,0,0.1,0.1,0.1,0.1c0,0,0,0.1,0.1,0.1
				c0,0.1,0.1,0.1,0.1,0.2c0,0,0,0.1,0,0.1c0,0.1,0,0.1,0.1,0.2c0,0.1,0,0.1,0,0.2l0,0l-0.2,0.5c-0.1-1-0.6-1.6-1.6-1.8l-0.6,0
				c-0.9,0-1.5,0.1-2.1-0.1c-1.9,0.7-3.4,2.2-4.2,4.1c-1.5,3.7,0.3,8.1,4,9.6c3.7,1.5,8.1-0.3,9.6-4c0.3-0.8,0.5-1.7,0.6-2.6
				c0-0.3,0-0.7,0-1c-0.6-1.4-1.2-2.4-2-3c-0.9-0.6-1.4-0.4-1.7-0.2l0,0l0,0c-0.1,0-0.2-0.1-0.2-0.1l-0.1,0l0.2-0.4
				c0,0,0.2,0.1,0.2,0.1c0.5-0.3,1-0.4,1.9,0.3c0.1,0.1,0.2,0.2,0.3,0.2l0.1,0.1c0.1,0.1,0.1,0.1,0.2,0.2l0.1,0.1
				c0.1,0.1,0.2,0.2,0.2,0.3c0,0,0.1,0.1,0.1,0.1c0.1,0.1,0.1,0.2,0.2,0.2l0.1,0.2c0,0.1,0.1,0.1,0.1,0.2c0,0.1,0.1,0.1,0.1,0.2
				c0.2,0.4,0.5,1.1,0.8,1.7c0.2,0.2,0.3,0.3,0.5,0.2c-0.5-2.9-1.7-5-3.7-6.3l0.2-0.4L30.7,31l1.3-2.4c0.4,0.3,3.1,2.5,3.5,3.9
				c0.5,1.4,2.7,7.3,2.7,7.3c0.3,0.8,1.1,1.4,2.2,1.4v0h6.4l1.6,0.3l2.1-0.3l2.5-0.7c0.9,3.3,4,5.6,7.5,5.4c4.2-0.1,7.4-3.7,7.3-7.8
				c0-0.9-0.2-1.8-0.6-2.6c-1.2-2.9-4.1-4.7-7.2-4.6c-2.6,0.1-4.9,1.5-6.2,3.6l-0.4,0.7c-0.5,1-0.7,2-0.7,3.2l-1.9,0.7l-0.5-0.8
				l1.7-1.7c0.3-3.6,3.6-5.2,4.7-5.7c1.1-0.5,2-0.8,3.9-0.9c1.9-0.1,5.3,1.3,6.8,5.3c0.3,0.6,0.8,1.1,1,1.1h0
				C68.5,36.3,68.7,36.3,68.8,36.1L68.8,36.1C68.8,36.1,68.8,36.1,68.8,36.1z"/>
		</g>
	</g>
</g>
</svg>
